# xmcd CD database file
# Copyright (C) 1994 Ti Kan
#
# Track frame offsets:
#	183
#	13245
#	25615
#	39293
#	50775
#	65905
#	77403
#	89105
#	104798
#	134068
#	144110
#	153260
#	167268
#	180033
#	196490
#	210883
#	229840
#	244620
#	258150
#	271355
#	280978
#	294448
#
# Disc length: 4101 seconds
#
# Revision: 1
# Processed by: cddbd v1.4b41PL1 Copyright (c) Steve Scherf et al.
# Submitted via: xmcd 1.3
#
DISCID=31100316
DTITLE=Ray Charles/1954 - 1966
DYEAR=1900
DGENRE=
TTITLE0=I've Got A Woman
TTITLE1=It Should've Been Me
TTITLE2=A Fool for You
TTITLE3=This Little Girl of Mine
TTITLE4=Drown in My Own Tears
TTITLE5=Hallelujah I Love Her So
TTITLE6=Lonely Avenue
TTITLE7=(Night Time Is) The Right Time
TTITLE8=What'd I Say (Parts 1 and 2)
TTITLE9=Sticks and Stones
TTITLE10=Hit the Road Jack
TTITLE11=One Mint Julep
TTITLE12=Unchain My Heart
TTITLE13=Georgia On My Mind
TTITLE14=Hide 'Nor Hair
TTITLE15=I Can't Stop Loving You
TTITLE16=You Don't Know Me
TTITLE17=You Are My Sunshine
TTITLE18=Take These Chains from My Heart
TTITLE19=Busted
TTITLE20=Let's Go Get Stoned
TTITLE21=Crying Time
EXTD=
EXTT0=
EXTT1=
EXTT2=
EXTT3=
EXTT4=
EXTT5=
EXTT6=
EXTT7=
EXTT8=
EXTT9=
EXTT10=
EXTT11=
EXTT12=
EXTT13=
EXTT14=
EXTT15=
EXTT16=
EXTT17=
EXTT18=
EXTT19=
EXTT20=
EXTT21=
PLAYORDER=
